<?xml version="1.0" encoding="UTF-8" standalone="no"?>
<!DOCTYPE svg PUBLIC "-//W3C//DTD SVG 1.1//EN"
 "http://www.w3.org/Graphics/SVG/1.1/DTD/svg11.dtd">
<!-- Generated by graphviz version 2.26.3 (20100126.1600)
 -->
<!-- Title: models_diagram Pages: 1 -->
<svg width="2691pt" height="606pt"
 viewBox="0.00 0.00 2691.00 606.00" xmlns="http://www.w3.org/2000/svg" xmlns:xlink="http://www.w3.org/1999/xlink">
<g id="graph1" class="graph" transform="scale(1 1) rotate(0) translate(4 602)">
<title>models_diagram</title>
<polygon fill="white" stroke="white" points="-4,5 -4,-602 2688,-602 2688,5 -4,5"/>
<!-- _diagram_info -->
<g id="node1" class="node"><title>_diagram_info</title>
<text text-anchor="start" x="722" y="-581.8" font-family="Times Roman,serif" font-size="13.00">Models diagram</text>
<text text-anchor="start" x="722" y="-564.8" font-family="Times Roman,serif" font-size="13.00">Date: Mar 08 2015 &#45; 03:26</text>
<text text-anchor="start" x="722" y="-547.8" font-family="Times Roman,serif" font-size="13.00">Migration version: 104</text>
<text text-anchor="start" x="722" y="-530.8" font-family="Times Roman,serif" font-size="13.00">Generated by RailRoady 1.3.0</text>
<text text-anchor="start" x="722" y="-513.8" font-family="Times Roman,serif" font-size="13.00">http://railroady.prestonlee.com</text>
</g>
<!-- Resource -->
<g id="node2" class="node"><title>Resource</title>
<ellipse fill="none" stroke="black" cx="739" cy="-355" rx="55.8614" ry="18.3848"/>
<text text-anchor="middle" x="739" y="-351.4" font-family="Times Roman,serif" font-size="14.00">Resource</text>
</g>
<!-- Feedback -->
<g id="node3" class="node"><title>Feedback</title>
<ellipse fill="none" stroke="black" cx="126" cy="-355" rx="56.0679" ry="18.3848"/>
<text text-anchor="middle" x="126" y="-351.4" font-family="Times Roman,serif" font-size="14.00">Feedback</text>
</g>
<!-- Redirection -->
<g id="node4" class="node"><title>Redirection</title>
<ellipse fill="none" stroke="black" cx="434" cy="-95" rx="65.9683" ry="18.3848"/>
<text text-anchor="middle" x="434" y="-91.4" font-family="Times Roman,serif" font-size="14.00">Redirection</text>
</g>
<!-- Feedback&#45;&gt;Redirection -->
<g id="edge6" class="edge"><title>Feedback&#45;&gt;Redirection</title>
<path fill="none" stroke="#989361" d="M145.892,-330.718C162.525,-310.932 187.275,-282.66 211,-260 276.105,-197.818 293.567,-182.646 368,-132 375.98,-126.57 384.816,-121.209 393.36,-116.325"/>
<ellipse fill="none" stroke="#989361" cx="143.14" cy="-334.013" rx="4.00002" ry="4.00002"/>
<polygon fill="#989361" stroke="#989361" points="393.384,-116.311 404.308,-115.351 397.746,-113.868 402.109,-111.425 402.109,-111.425 402.109,-111.425 397.746,-113.868 399.91,-107.499 393.384,-116.311 393.384,-116.311"/>
</g>
<!-- Redirect -->
<g id="node9" class="node"><title>Redirect</title>
<ellipse fill="none" stroke="black" cx="363" cy="-279" rx="51.1176" ry="18.3848"/>
<text text-anchor="middle" x="363" y="-275.4" font-family="Times Roman,serif" font-size="14.00">Redirect</text>
</g>
<!-- Feedback&#45;&gt;Redirect -->
<g id="edge8" class="edge"><title>Feedback&#45;&gt;Redirect</title>
<path fill="none" stroke="#af1896" d="M175.908,-338.996C216.863,-325.863 274.487,-307.384 314.931,-294.415"/>
<polygon fill="#af1896" stroke="#af1896" points="175.726,-339.054 164.83,-337.823 170.965,-340.581 166.204,-342.108 166.204,-342.108 166.204,-342.108 170.965,-340.581 167.578,-346.393 175.726,-339.054 175.726,-339.054"/>
<polygon fill="#af1896" stroke="#af1896" points="315.043,-294.379 325.94,-295.61 319.805,-292.852 324.566,-291.325 324.566,-291.325 324.566,-291.325 319.805,-292.852 323.192,-287.04 315.043,-294.379 315.043,-294.379"/>
</g>
<!-- Notification -->
<g id="node17" class="node"><title>Notification</title>
<ellipse fill="none" stroke="black" cx="729" cy="-19" rx="67.1751" ry="18.3848"/>
<text text-anchor="middle" x="729" y="-15.4" font-family="Times Roman,serif" font-size="14.00">Notification</text>
</g>
<!-- Feedback&#45;&gt;Notification -->
<g id="edge2" class="edge"><title>Feedback&#45;&gt;Notification</title>
<path fill="none" stroke="#509d43" d="M82.7664,-336.813C60.5139,-324.279 38,-305.139 38,-279 38,-279 38,-279 38,-95 38,-25.2562 121.145,-67.1011 190,-56 276.891,-41.991 526.046,-28.6375 652.866,-22.5069"/>
<ellipse fill="none" stroke="#509d43" cx="86.4247" cy="-338.767" rx="4.00002" ry="4.00002"/>
<polygon fill="#509d43" stroke="#509d43" points="652.906,-22.505 663.11,-26.5196 657.9,-22.2649 662.894,-22.0248 662.894,-22.0248 662.894,-22.0248 657.9,-22.2649 662.678,-17.53 652.906,-22.505 652.906,-22.505"/>
</g>
<!-- Trigger -->
<g id="node18" class="node"><title>Trigger</title>
<ellipse fill="none" stroke="black" cx="202" cy="-95" rx="44.7575" ry="18.3848"/>
<text text-anchor="middle" x="202" y="-91.4" font-family="Times Roman,serif" font-size="14.00">Trigger</text>
</g>
<!-- Feedback&#45;&gt;Trigger -->
<g id="edge10" class="edge"><title>Feedback&#45;&gt;Trigger</title>
<path fill="none" stroke="#5242e7" d="M102.853,-330.596C100.606,-326.031 99.3575,-321.086 100,-316 108.512,-248.624 106.305,-228.062 138,-168 147.6,-149.807 162.593,-132.369 175.655,-119.101"/>
<ellipse fill="none" stroke="#5242e7" cx="104.974" cy="-334.021" rx="4.00002" ry="4.00002"/>
<polygon fill="#5242e7" stroke="#5242e7" points="175.944,-118.816 186.225,-115.002 179.505,-115.307 183.067,-111.797 183.067,-111.797 183.067,-111.797 179.505,-115.307 179.908,-108.592 175.944,-118.816 175.944,-118.816"/>
</g>
<!-- User -->
<g id="node25" class="node"><title>User</title>
<ellipse fill="none" stroke="black" cx="729" cy="-95" rx="33.9411" ry="18.3848"/>
<text text-anchor="middle" x="729" y="-91.4" font-family="Times Roman,serif" font-size="14.00">User</text>
</g>
<!-- Feedback&#45;&gt;User -->
<g id="edge4" class="edge"><title>Feedback&#45;&gt;User</title>
<path fill="none" stroke="#193e04" d="M176.597,-339.562C181.445,-338.279 186.303,-337.067 191,-336 292.889,-312.855 332.013,-349.366 423,-298 460.614,-276.766 449.188,-246.596 486,-224 515.215,-206.067 529.478,-219.471 561,-206 589.681,-193.743 592.9,-183.442 620,-168 635.542,-159.144 640.793,-159.421 656,-150 671.974,-140.103 688.79,-127.594 702.251,-117.006"/>
<polygon fill="#193e04" stroke="#193e04" points="176.36,-339.627 165.525,-337.934 171.538,-340.95 166.716,-342.273 166.716,-342.273 166.716,-342.273 171.538,-340.95 167.907,-346.613 176.36,-339.627 176.36,-339.627"/>
<polygon fill="#193e04" stroke="#193e04" points="702.341,-116.935 712.966,-114.222 706.251,-113.819 710.162,-110.703 710.162,-110.703 710.162,-110.703 706.251,-113.819 707.357,-107.183 702.341,-116.935 702.341,-116.935"/>
<text text-anchor="middle" x="528.5" y="-229.4" font-family="Times Roman,serif" font-size="14.00">notify_users</text>
</g>
<!-- Right -->
<g id="node5" class="node"><title>Right</title>
<ellipse fill="none" stroke="black" cx="1344" cy="-551" rx="36.977" ry="18.3848"/>
<text text-anchor="middle" x="1344" y="-547.4" font-family="Times Roman,serif" font-size="14.00">Right</text>
</g>
<!-- Profile -->
<g id="node22" class="node"><title>Profile</title>
<ellipse fill="none" stroke="black" cx="1344" cy="-447" rx="41.9273" ry="18.3848"/>
<text text-anchor="middle" x="1344" y="-443.4" font-family="Times Roman,serif" font-size="14.00">Profile</text>
</g>
<!-- Right&#45;&gt;Profile -->
<g id="edge12" class="edge"><title>Right&#45;&gt;Profile</title>
<path fill="none" stroke="#3f98f4" d="M1344,-522.166C1344,-507.816 1344,-490.508 1344,-476.119"/>
<polygon fill="#3f98f4" stroke="#3f98f4" points="1344,-522.407 1339.5,-532.407 1344,-527.407 1344,-532.407 1344,-532.407 1344,-532.407 1344,-527.407 1348.5,-532.407 1344,-522.407 1344,-522.407"/>
<polygon fill="#3f98f4" stroke="#3f98f4" points="1344,-475.783 1348.5,-465.783 1344,-470.783 1344,-465.783 1344,-465.783 1344,-465.783 1344,-470.783 1339.5,-465.783 1344,-475.783 1344,-475.783"/>
</g>
<!-- Comment -->
<g id="node6" class="node"><title>Comment</title>
<ellipse fill="none" stroke="black" cx="258" cy="-355" rx="58.1882" ry="18.3848"/>
<text text-anchor="middle" x="258" y="-351.4" font-family="Times Roman,serif" font-size="14.00">Comment</text>
</g>
<!-- Comment&#45;&gt;Redirection -->
<g id="edge18" class="edge"><title>Comment&#45;&gt;Redirection</title>
<path fill="none" stroke="#07b6d2" d="M268.156,-328.974C286.399,-284.654 328.178,-193.375 385,-132 389.42,-127.226 394.517,-122.625 399.718,-118.387"/>
<ellipse fill="none" stroke="#07b6d2" cx="266.632" cy="-332.727" rx="4.00002" ry="4.00002"/>
<polygon fill="#07b6d2" stroke="#07b6d2" points="399.989,-118.177 410.649,-115.608 403.941,-115.114 407.893,-112.051 407.893,-112.051 407.893,-112.051 403.941,-115.114 405.136,-108.494 399.989,-118.177 399.989,-118.177"/>
</g>
<!-- Comment&#45;&gt;Redirect -->
<g id="edge20" class="edge"><title>Comment&#45;&gt;Redirect</title>
<path fill="none" stroke="#bbc026" d="M289.686,-332.065C302.939,-322.472 318.304,-311.351 331.534,-301.775"/>
<polygon fill="#bbc026" stroke="#bbc026" points="289.665,-332.081 278.926,-334.299 285.614,-335.012 281.564,-337.944 281.564,-337.944 281.564,-337.944 285.614,-335.012 284.203,-341.589 289.665,-332.081 289.665,-332.081"/>
<polygon fill="#bbc026" stroke="#bbc026" points="331.775,-301.601 342.515,-299.383 335.826,-298.669 339.876,-295.737 339.876,-295.737 339.876,-295.737 335.826,-298.669 337.238,-292.092 331.775,-301.601 331.775,-301.601"/>
</g>
<!-- Comment&#45;&gt;Notification -->
<g id="edge14" class="edge"><title>Comment&#45;&gt;Notification</title>
<path fill="none" stroke="#b22b89" d="M234.016,-331.391C183.894,-279.271 78.2659,-152.91 148,-76 181.233,-39.347 501.786,-25.4463 652.019,-20.9135"/>
<ellipse fill="none" stroke="#b22b89" cx="237.047" cy="-334.504" rx="4.00002" ry="4.00002"/>
<polygon fill="#b22b89" stroke="#b22b89" points="652.104,-20.9111 662.232,-25.1138 657.102,-20.7634 662.099,-20.6157 662.099,-20.6157 662.099,-20.6157 657.102,-20.7634 661.966,-16.1177 652.104,-20.9111 652.104,-20.9111"/>
</g>
<!-- Comment&#45;&gt;Trigger -->
<g id="edge22" class="edge"><title>Comment&#45;&gt;Trigger</title>
<path fill="none" stroke="#e1d045" d="M238.272,-330.038C235.868,-326.164 233.674,-322.087 232,-318 205.104,-252.352 201.271,-167.619 201.314,-123.917"/>
<ellipse fill="none" stroke="#e1d045" cx="240.537" cy="-333.426" rx="4.00002" ry="4.00002"/>
<polygon fill="#e1d045" stroke="#e1d045" points="201.315,-123.727 205.897,-113.764 201.356,-118.727 201.397,-113.727 201.397,-113.727 201.397,-113.727 201.356,-118.727 196.897,-113.691 201.315,-123.727 201.315,-123.727"/>
</g>
<!-- Comment&#45;&gt;User -->
<g id="edge16" class="edge"><title>Comment&#45;&gt;User</title>
<path fill="none" stroke="#05160e" d="M320.332,-345.18C339.469,-342.195 360.596,-338.931 380,-336 434.629,-327.749 453.969,-343.464 503,-318 554.058,-291.483 547.702,-260.712 592,-224 603.391,-214.56 607.986,-214.632 620,-206 652.356,-182.752 662.656,-178.977 690,-150 698.242,-141.266 706.142,-130.699 712.65,-121.171"/>
<polygon fill="#05160e" stroke="#05160e" points="320.108,-345.215 309.533,-342.312 315.168,-345.986 310.228,-346.758 310.228,-346.758 310.228,-346.758 315.168,-345.986 310.923,-351.204 320.108,-345.215 320.108,-345.215"/>
<polygon fill="#05160e" stroke="#05160e" points="712.678,-121.129 721.955,-115.283 715.441,-116.962 718.205,-112.795 718.205,-112.795 718.205,-112.795 715.441,-116.962 714.455,-110.308 712.678,-121.129 712.678,-121.129"/>
<text text-anchor="middle" x="634.5" y="-229.4" font-family="Times Roman,serif" font-size="14.00">notify_users</text>
</g>
<!-- Category -->
<g id="node7" class="node"><title>Category</title>
<ellipse fill="none" stroke="black" cx="998" cy="-551" rx="56.0679" ry="18.3848"/>
<text text-anchor="middle" x="998" y="-547.4" font-family="Times Roman,serif" font-size="14.00">Category</text>
</g>
<!-- Category&#45;&gt;Category -->
<g id="edge24" class="edge"><title>Category&#45;&gt;Category</title>
<path fill="none" stroke="#ee87ae" d="M1048.43,-563.27C1061.84,-562.579 1072,-558.489 1072,-551 1072,-543.861 1062.76,-539.811 1050.29,-538.849"/>
<ellipse fill="none" stroke="#ee87ae" cx="1044.21" cy="-563.277" rx="4" ry="4"/>
<polygon fill="#ee87ae" stroke="#ee87ae" points="1050.21,-538.848 1040.27,-534.217 1045.21,-538.782 1040.21,-538.716 1040.21,-538.716 1040.21,-538.716 1045.21,-538.782 1040.15,-543.216 1050.21,-538.848 1050.21,-538.848"/>
<text text-anchor="middle" x="1099.5" y="-547.4" font-family="Times Roman,serif" font-size="14.00">children</text>
</g>
<!-- Article -->
<g id="node19" class="node"><title>Article</title>
<ellipse fill="none" stroke="black" cx="619" cy="-447" rx="43.1335" ry="18.3848"/>
<text text-anchor="middle" x="619" y="-443.4" font-family="Times Roman,serif" font-size="14.00">Article</text>
</g>
<!-- Category&#45;&gt;Article -->
<g id="edge28" class="edge"><title>Category&#45;&gt;Article</title>
<path fill="none" stroke="#2baa8a" d="M970.682,-527.068C959.649,-518.565 946.374,-509.699 933,-504 846.333,-467.07 736.271,-454.052 672.125,-449.473"/>
<polygon fill="#2baa8a" stroke="#2baa8a" points="970.838,-527.193 975.835,-536.955 974.742,-530.317 978.646,-533.441 978.646,-533.441 978.646,-533.441 974.742,-530.317 981.458,-529.927 970.838,-527.193 970.838,-527.193"/>
<polygon fill="#2baa8a" stroke="#2baa8a" points="671.828,-449.453 662.152,-444.294 666.839,-449.118 661.851,-448.784 661.851,-448.784 661.851,-448.784 666.839,-449.118 661.55,-453.274 671.828,-449.453 671.828,-449.453"/>
</g>
<!-- Categorization -->
<g id="node23" class="node"><title>Categorization</title>
<ellipse fill="none" stroke="black" cx="1233" cy="-355" rx="84.1457" ry="18.3848"/>
<text text-anchor="middle" x="1233" y="-351.4" font-family="Times Roman,serif" font-size="14.00">Categorization</text>
</g>
<!-- Category&#45;&gt;Categorization -->
<g id="edge26" class="edge"><title>Category&#45;&gt;Categorization</title>
<path fill="none" stroke="#ee852e" d="M1025.38,-528.432C1059.03,-500.66 1117.85,-452.015 1168,-410 1179.76,-400.146 1192.67,-389.24 1203.87,-379.756"/>
<ellipse fill="none" stroke="#ee852e" cx="1022.08" cy="-531.155" rx="4.00002" ry="4.00002"/>
<polygon fill="#ee852e" stroke="#ee852e" points="1204.05,-379.604 1214.58,-376.568 1207.86,-376.37 1211.67,-373.136 1211.67,-373.136 1211.67,-373.136 1207.86,-376.37 1208.76,-369.704 1204.05,-379.604 1204.05,-379.604"/>
</g>
<!-- ConfigManager -->
<g id="node8" class="node"><title>ConfigManager</title>
<polygon fill="none" stroke="black" stroke-dasharray="1,5" points="1519,-569 1399,-569 1399,-533 1519,-533 1519,-569"/>
<text text-anchor="middle" x="1459" y="-547.4" font-family="Times Roman,serif" font-size="14.00">ConfigManager</text>
</g>
<!-- Redirect&#45;&gt;Redirection -->
<g id="edge30" class="edge"><title>Redirect&#45;&gt;Redirection</title>
<path fill="none" stroke="#873d6d" d="M364.001,-251.857C366.358,-220.481 374.069,-168.487 399,-132 401.725,-128.012 404.88,-124.041 408.159,-120.262"/>
<ellipse fill="none" stroke="#873d6d" cx="363.726" cy="-256.138" rx="4" ry="4"/>
<polygon fill="#873d6d" stroke="#873d6d" points="408.21,-120.206 418.282,-115.868 411.586,-116.518 414.962,-112.829 414.962,-112.829 414.962,-112.829 411.586,-116.518 411.643,-109.791 408.21,-120.206 408.21,-120.206"/>
</g>
<!-- Content -->
<g id="node16" class="node"><title>Content</title>
<ellipse fill="none" stroke="black" cx="442" cy="-187" rx="51.1176" ry="18.3848"/>
<text text-anchor="middle" x="442" y="-183.4" font-family="Times Roman,serif" font-size="14.00">Content</text>
</g>
<!-- Redirect&#45;&gt;Content -->
<g id="edge32" class="edge"><title>Redirect&#45;&gt;Content</title>
<path fill="none" stroke="#3ef73c" d="M384.856,-253.547C395.903,-240.682 409.268,-225.119 420.293,-212.279"/>
<polygon fill="#3ef73c" stroke="#3ef73c" points="384.747,-253.675 374.818,-258.33 381.489,-257.468 378.232,-261.261 378.232,-261.261 378.232,-261.261 381.489,-257.468 381.646,-264.193 384.747,-253.675 384.747,-253.675"/>
<polygon fill="#3ef73c" stroke="#3ef73c" points="420.3,-212.271 430.229,-207.616 423.557,-208.477 426.815,-204.684 426.815,-204.684 426.815,-204.684 423.557,-208.477 423.401,-201.752 420.3,-212.271 420.3,-212.271"/>
</g>
<!-- Theme -->
<g id="node10" class="node"><title>Theme</title>
<polygon fill="none" stroke="black" points="1601,-569 1537,-569 1537,-533 1601,-533 1601,-569"/>
<text text-anchor="middle" x="1569" y="-547.4" font-family="Times Roman,serif" font-size="14.00">Theme</text>
</g>
<!-- Sidebar -->
<g id="node11" class="node"><title>Sidebar</title>
<ellipse fill="none" stroke="black" cx="1667" cy="-551" rx="48.0833" ry="18.3848"/>
<text text-anchor="middle" x="1667" y="-547.4" font-family="Times Roman,serif" font-size="14.00">Sidebar</text>
</g>
<!-- TextFilter -->
<g id="node12" class="node"><title>TextFilter</title>
<ellipse fill="none" stroke="black" cx="1790" cy="-551" rx="56.7776" ry="18.3848"/>
<text text-anchor="middle" x="1790" y="-547.4" font-family="Times Roman,serif" font-size="14.00">TextFilter</text>
</g>
<!-- WebNotifier -->
<g id="node13" class="node"><title>WebNotifier</title>
<polygon fill="none" stroke="black" points="1963,-569 1865,-569 1865,-533 1963,-533 1963,-569"/>
<text text-anchor="middle" x="1914" y="-547.4" font-family="Times Roman,serif" font-size="14.00">WebNotifier</text>
</g>
<!-- NotificationMailer -->
<g id="node14" class="node"><title>NotificationMailer</title>
<polygon fill="none" stroke="black" points="2117,-569 1981,-569 1981,-533 2117,-533 2117,-569"/>
<text text-anchor="middle" x="2049" y="-547.4" font-family="Times Roman,serif" font-size="14.00">NotificationMailer</text>
</g>
<!-- Trackback -->
<g id="node15" class="node"><title>Trackback</title>
<ellipse fill="none" stroke="black" cx="448" cy="-355" rx="58.8978" ry="18.3848"/>
<text text-anchor="middle" x="448" y="-351.4" font-family="Times Roman,serif" font-size="14.00">Trackback</text>
</g>
<!-- Trackback&#45;&gt;Redirection -->
<g id="edge38" class="edge"><title>Trackback&#45;&gt;Redirection</title>
<path fill="none" stroke="#5571f8" d="M441.901,-328.494C436.933,-299.882 433.904,-254.344 456,-224 468.923,-206.253 481.663,-214.27 502,-206 542.22,-189.643 551.664,-184.071 592,-168 613.166,-159.567 627.022,-168.727 640,-150 644.557,-143.425 645.133,-138.137 640,-132 623.363,-112.108 561.239,-102.896 509.523,-98.638"/>
<ellipse fill="none" stroke="#5571f8" cx="442.662" cy="-332.511" rx="4.00001" ry="4.00001"/>
<polygon fill="#5571f8" stroke="#5571f8" points="509.306,-98.6213 499.682,-93.3641 504.321,-98.236 499.335,-97.8507 499.335,-97.8507 499.335,-97.8507 504.321,-98.236 498.989,-102.337 509.306,-98.6213 509.306,-98.6213"/>
</g>
<!-- Trackback&#45;&gt;Redirect -->
<g id="edge40" class="edge"><title>Trackback&#45;&gt;Redirect</title>
<path fill="none" stroke="#00b133" d="M420.796,-330.677C410.911,-321.838 399.751,-311.86 389.893,-303.045"/>
<polygon fill="#00b133" stroke="#00b133" points="420.831,-330.708 425.286,-340.728 424.558,-334.04 428.286,-337.373 428.286,-337.373 428.286,-337.373 424.558,-334.04 431.285,-334.018 420.831,-330.708 420.831,-330.708"/>
<polygon fill="#00b133" stroke="#00b133" points="389.769,-302.935 385.314,-292.915 386.042,-299.602 382.314,-296.269 382.314,-296.269 382.314,-296.269 386.042,-299.602 379.315,-299.624 389.769,-302.935 389.769,-302.935"/>
</g>
<!-- Trackback&#45;&gt;Notification -->
<g id="edge34" class="edge"><title>Trackback&#45;&gt;Notification</title>
<path fill="none" stroke="#847214" d="M498.819,-340.19C504.593,-338.689 510.409,-337.258 516,-336 589.033,-319.573 848,-353.857 848,-279 848,-279 848,-279 848,-95 848,-64.2536 819.435,-45.3918 790.295,-34.1495"/>
<ellipse fill="none" stroke="#847214" cx="494.864" cy="-341.241" rx="4.00001" ry="4.00001"/>
<polygon fill="#847214" stroke="#847214" points="790.262,-34.1378 782.368,-26.526 785.555,-32.4498 780.849,-30.7618 780.849,-30.7618 780.849,-30.7618 785.555,-32.4498 779.33,-34.9976 790.262,-34.1378 790.262,-34.1378"/>
</g>
<!-- Trackback&#45;&gt;Trigger -->
<g id="edge42" class="edge"><title>Trackback&#45;&gt;Trigger</title>
<path fill="none" stroke="#1a75bc" d="M390.825,-342.38C361.928,-333.72 327.824,-319.754 303,-298 248.847,-250.544 220.516,-167.265 208.754,-123.583"/>
<ellipse fill="none" stroke="#1a75bc" cx="394.982" cy="-343.577" rx="4.00001" ry="4.00001"/>
<polygon fill="#1a75bc" stroke="#1a75bc" points="208.683,-123.309 210.534,-112.501 207.43,-118.469 206.177,-113.628 206.177,-113.628 206.177,-113.628 207.43,-118.469 201.821,-114.756 208.683,-123.309 208.683,-123.309"/>
</g>
<!-- Trackback&#45;&gt;User -->
<g id="edge36" class="edge"><title>Trackback&#45;&gt;User</title>
<path fill="none" stroke="#806944" d="M501.681,-339.712C506.514,-338.423 511.341,-337.168 516,-336 551.772,-327.035 564.915,-336.181 597,-318 677.057,-272.635 687.019,-236.645 718,-150 720.983,-141.656 723.236,-132.294 724.9,-123.693"/>
<polygon fill="#806944" stroke="#806944" points="501.455,-339.773 490.627,-338.044 496.629,-341.08 491.803,-342.388 491.803,-342.388 491.803,-342.388 496.629,-341.08 492.98,-346.731 501.455,-339.773 501.455,-339.773"/>
<polygon fill="#806944" stroke="#806944" points="724.925,-123.548 731.08,-114.473 725.786,-118.623 726.647,-113.698 726.647,-113.698 726.647,-113.698 725.786,-118.623 722.215,-112.923 724.925,-123.548 724.925,-123.548"/>
<text text-anchor="middle" x="732.5" y="-229.4" font-family="Times Roman,serif" font-size="14.00">notify_users</text>
</g>
<!-- Content&#45;&gt;Redirection -->
<g id="edge48" class="edge"><title>Content&#45;&gt;Redirection</title>
<path fill="none" stroke="#040eb7" d="M413.148,-164.196C409.427,-159.901 406.165,-155.13 404,-150 399.898,-140.28 403.211,-130.029 408.91,-121.046"/>
<ellipse fill="none" stroke="#040eb7" cx="416.081" cy="-167.25" rx="4.00002" ry="4.00002"/>
<polygon fill="#040eb7" stroke="#040eb7" points="409,-120.924 418.56,-115.553 411.97,-116.902 414.94,-112.88 414.94,-112.88 414.94,-112.88 411.97,-116.902 411.32,-110.207 409,-120.924 409,-120.924"/>
</g>
<!-- Content&#45;&gt;Notification -->
<g id="edge44" class="edge"><title>Content&#45;&gt;Notification</title>
<path fill="none" stroke="#29d3dc" d="M408.342,-166.42C375.228,-143.648 333.113,-106.181 359,-76 377.991,-53.8594 552.299,-34.7409 654.75,-25.2938"/>
<ellipse fill="none" stroke="#29d3dc" cx="411.922" cy="-168.82" rx="4.00002" ry="4.00002"/>
<polygon fill="#29d3dc" stroke="#29d3dc" points="654.779,-25.2913 665.147,-28.8639 659.758,-24.8369 664.738,-24.3825 664.738,-24.3825 664.738,-24.3825 659.758,-24.8369 664.329,-19.9011 654.779,-25.2913 654.779,-25.2913"/>
</g>
<!-- Content&#45;&gt;Trigger -->
<g id="edge50" class="edge"><title>Content&#45;&gt;Trigger</title>
<path fill="none" stroke="#c7293b" d="M395.086,-172.707C374.637,-166.203 350.479,-158.147 329,-150 299.119,-138.665 266.005,-124.262 241.084,-113.038"/>
<ellipse fill="none" stroke="#c7293b" cx="398.914" cy="-173.916" rx="4.00001" ry="4.00001"/>
<polygon fill="#c7293b" stroke="#c7293b" points="241.067,-113.031 233.814,-104.806 236.512,-110.968 231.958,-108.905 231.958,-108.905 231.958,-108.905 236.512,-110.968 230.101,-113.005 241.067,-113.031 241.067,-113.031"/>
</g>
<!-- Content&#45;&gt;User -->
<g id="edge46" class="edge"><title>Content&#45;&gt;User</title>
<path fill="none" stroke="#33378f" d="M423.147,-160.077C418.736,-150.328 417.083,-139.807 424,-132 432.565,-122.333 602.809,-106.11 685.143,-98.7882"/>
<polygon fill="#33378f" stroke="#33378f" points="423.26,-160.285 424.076,-171.221 425.645,-164.68 428.031,-169.074 428.031,-169.074 428.031,-169.074 425.645,-164.68 431.985,-166.927 423.26,-160.285 423.26,-160.285"/>
<polygon fill="#33378f" stroke="#33378f" points="685.244,-98.7793 695.601,-102.381 690.224,-98.339 695.205,-97.8988 695.205,-97.8988 695.205,-97.8988 690.224,-98.339 694.809,-93.4162 685.244,-98.7793 685.244,-98.7793"/>
<text text-anchor="middle" x="466.5" y="-137.4" font-family="Times Roman,serif" font-size="14.00">notify_users</text>
</g>
<!-- Article&#45;&gt;Resource -->
<g id="edge68" class="edge"><title>Article&#45;&gt;Resource</title>
<path fill="none" stroke="#a03674" d="M646.798,-425.688C665.344,-411.47 689.723,-392.779 708.754,-378.189"/>
<ellipse fill="none" stroke="#a03674" cx="643.352" cy="-428.33" rx="4.00002" ry="4.00002"/>
<polygon fill="#a03674" stroke="#a03674" points="708.879,-378.093 719.553,-375.58 712.847,-375.05 716.815,-372.008 716.815,-372.008 716.815,-372.008 712.847,-375.05 714.077,-368.437 708.879,-378.093 708.879,-378.093"/>
</g>
<!-- Article&#45;&gt;Feedback -->
<g id="edge66" class="edge"><title>Article&#45;&gt;Feedback</title>
<path fill="none" stroke="#bdb1d6" d="M567.696,-445.742C471.875,-442.849 269.493,-434.021 204,-410 185.274,-403.132 166.913,-390.562 152.713,-379.171"/>
<ellipse fill="none" stroke="#bdb1d6" cx="571.798" cy="-445.863" rx="4" ry="4"/>
<polygon fill="#bdb1d6" stroke="#bdb1d6" points="152.556,-379.041 147.737,-369.191 148.709,-375.847 144.862,-372.653 144.862,-372.653 144.862,-372.653 148.709,-375.847 141.988,-376.115 152.556,-379.041 152.556,-379.041"/>
</g>
<!-- Article&#45;&gt;Feedback -->
<g id="edge78" class="edge"><title>Article&#45;&gt;Feedback</title>
<path fill="none" stroke="#e71207" d="M567.627,-445.64C428.244,-441.701 52.1397,-429.323 34,-410 17.1791,-392.082 42.2,-378.013 70.3673,-368.591"/>
<ellipse fill="none" stroke="#e71207" cx="571.672" cy="-445.753" rx="4" ry="4"/>
<polygon fill="#e71207" stroke="#e71207" points="70.4426,-368.567 81.331,-369.869 75.2135,-367.071 79.9844,-365.575 79.9844,-365.575 79.9844,-365.575 75.2135,-367.071 78.6378,-361.281 70.4426,-368.567 70.4426,-368.567"/>
<text text-anchor="middle" x="101" y="-397.4" font-family="Times Roman,serif" font-size="14.00">published_feedback</text>
</g>
<!-- Article&#45;&gt;Redirection -->
<g id="edge56" class="edge"><title>Article&#45;&gt;Redirection</title>
<path fill="none" stroke="#d22e13" d="M664.481,-435.356C713.825,-421.694 787.762,-397.864 804,-374 826.455,-341 805.12,-267.049 777,-224 740.054,-167.441 718.022,-158.781 656,-132 629.49,-120.553 559.592,-109.991 505.242,-103.107"/>
<ellipse fill="none" stroke="#d22e13" cx="660.342" cy="-436.487" rx="4.00001" ry="4.00001"/>
<polygon fill="#d22e13" stroke="#d22e13" points="505.212,-103.103 495.846,-97.3998 500.25,-102.484 495.289,-101.865 495.289,-101.865 495.289,-101.865 500.25,-102.484 494.732,-106.331 505.212,-103.103 505.212,-103.103"/>
</g>
<!-- Article&#45;&gt;Comment -->
<g id="edge72" class="edge"><title>Article&#45;&gt;Comment</title>
<path fill="none" stroke="#52d9eb" d="M568.875,-441.41C511.164,-434.548 420.183,-422.301 388,-410 374.181,-404.718 373.258,-398.563 360,-392 344.053,-384.106 325.987,-377 309.537,-371.175"/>
<ellipse fill="none" stroke="#52d9eb" cx="573.165" cy="-441.915" rx="4.00001" ry="4.00001"/>
<polygon fill="#52d9eb" stroke="#52d9eb" points="309.516,-371.168 301.538,-363.645 304.791,-369.533 300.066,-367.897 300.066,-367.897 300.066,-367.897 304.791,-369.533 298.595,-372.15 309.516,-371.168 309.516,-371.168"/>
</g>
<!-- Article&#45;&gt;Comment -->
<g id="edge74" class="edge"><title>Article&#45;&gt;Comment</title>
<path fill="none" stroke="#ead272" d="M567.734,-446.119C463.686,-443.797 235.554,-435.792 212,-410 202.566,-399.67 210.28,-387.81 221.905,-377.754"/>
<ellipse fill="none" stroke="#ead272" cx="571.908" cy="-446.209" rx="4" ry="4"/>
<polygon fill="#ead272" stroke="#ead272" points="222.094,-377.606 232.741,-374.984 226.03,-374.524 229.967,-371.441 229.967,-371.441 229.967,-371.441 226.03,-374.524 227.193,-367.898 222.094,-377.606 222.094,-377.606"/>
<text text-anchor="middle" x="284" y="-397.4" font-family="Times Roman,serif" font-size="14.00">published_comments</text>
</g>
<!-- Article&#45;&gt;Redirect -->
<g id="edge58" class="edge"><title>Article&#45;&gt;Redirect</title>
<path fill="none" stroke="#017124" d="M567.381,-440.512C517.609,-433.693 446.229,-422.269 421,-410 399.192,-399.394 391.915,-395.12 380,-374 368.608,-353.807 364.564,-327.688 363.254,-307.948"/>
<polygon fill="#017124" stroke="#017124" points="567.428,-440.518 576.737,-446.314 572.383,-441.186 577.338,-441.854 577.338,-441.854 577.338,-441.854 572.383,-441.186 577.94,-437.395 567.428,-440.518 567.428,-440.518"/>
<polygon fill="#017124" stroke="#017124" points="363.242,-307.706 367.272,-297.507 363.01,-302.711 362.777,-297.717 362.777,-297.717 362.777,-297.717 363.01,-302.711 358.282,-297.926 363.242,-307.706 363.242,-307.706"/>
</g>
<!-- Article&#45;&gt;Trackback -->
<g id="edge64" class="edge"><title>Article&#45;&gt;Trackback</title>
<path fill="none" stroke="#13365c" d="M606.059,-421.572C599.543,-411.046 590.73,-399.558 580,-392 579.783,-391.847 538.591,-380.312 502.286,-370.163"/>
<ellipse fill="none" stroke="#13365c" cx="608.178" cy="-425.193" rx="4.00002" ry="4.00002"/>
<polygon fill="#13365c" stroke="#13365c" points="501.844,-370.039 493.425,-363.014 497.029,-368.693 492.213,-367.347 492.213,-367.347 492.213,-367.347 497.029,-368.693 491.002,-371.681 501.844,-370.039 501.844,-370.039"/>
</g>
<!-- Article&#45;&gt;Trackback -->
<g id="edge76" class="edge"><title>Article&#45;&gt;Trackback</title>
<path fill="none" stroke="#6cca24" d="M567.947,-444.193C517.783,-440.242 446.309,-431.005 429,-410 422.427,-402.024 424.142,-391.639 428.571,-382.045"/>
<ellipse fill="none" stroke="#6cca24" cx="572.125" cy="-444.506" rx="4" ry="4"/>
<polygon fill="#6cca24" stroke="#6cca24" points="428.627,-381.944 437.404,-375.37 431.046,-377.568 433.466,-373.192 433.466,-373.192 433.466,-373.192 431.046,-377.568 429.528,-371.015 428.627,-381.944 428.627,-381.944"/>
<text text-anchor="middle" x="502.5" y="-397.4" font-family="Times Roman,serif" font-size="14.00">published_trackbacks</text>
</g>
<!-- Article&#45;&gt;Notification -->
<g id="edge52" class="edge"><title>Article&#45;&gt;Notification</title>
<path fill="none" stroke="#65e9ba" d="M669.464,-443.023C796.786,-432.314 1121,-400.572 1121,-355 1121,-355 1121,-355 1121,-95 1121,-62.9522 916.464,-37.5484 802.882,-25.9118"/>
<ellipse fill="none" stroke="#65e9ba" cx="665.354" cy="-443.365" rx="4" ry="4"/>
<polygon fill="#65e9ba" stroke="#65e9ba" points="802.803,-25.9039 793.308,-20.4189 797.829,-25.3999 792.854,-24.896 792.854,-24.896 792.854,-24.896 797.829,-25.3999 792.4,-29.3731 802.803,-25.9039 802.803,-25.9039"/>
</g>
<!-- Article&#45;&gt;Trigger -->
<g id="edge60" class="edge"><title>Article&#45;&gt;Trigger</title>
<path fill="none" stroke="#23bbd6" d="M567.72,-445.236C427.595,-440.226 47.187,-425.283 25,-410 2.8872,-394.768 0,-381.851 0,-355 0,-355 0,-355 0,-233 0,-159.728 91.7377,-122.54 151.568,-106.078"/>
<ellipse fill="none" stroke="#23bbd6" cx="571.806" cy="-445.381" rx="4" ry="4"/>
<polygon fill="#23bbd6" stroke="#23bbd6" points="151.939,-105.98 162.757,-107.777 156.774,-104.703 161.608,-103.426 161.608,-103.426 161.608,-103.426 156.774,-104.703 160.459,-99.0757 151.939,-105.98 151.939,-105.98"/>
</g>
<!-- Article&#45;&gt;Categorization -->
<g id="edge70" class="edge"><title>Article&#45;&gt;Categorization</title>
<path fill="none" stroke="#a0f64f" d="M670.343,-446.16C783.086,-443.855 1049.08,-435.779 1135,-410 1158.13,-403.061 1181.79,-389.979 1200.08,-378.314"/>
<ellipse fill="none" stroke="#a0f64f" cx="666.171" cy="-446.243" rx="4" ry="4"/>
<polygon fill="#a0f64f" stroke="#a0f64f" points="1200.23,-378.215 1211.06,-376.498 1204.41,-375.474 1208.59,-372.734 1208.59,-372.734 1208.59,-372.734 1204.41,-375.474 1206.13,-368.97 1200.23,-378.215 1200.23,-378.215"/>
</g>
<!-- Article&#45;&gt;User -->
<g id="edge54" class="edge"><title>Article&#45;&gt;User</title>
<path fill="none" stroke="#b4eaed" d="M671.456,-441.816C750.814,-432.844 895.786,-411.669 930,-374 970.965,-328.899 958.7,-302.36 967,-242 979.485,-151.202 844.224,-114.388 772.264,-101.309"/>
<polygon fill="#b4eaed" stroke="#b4eaed" points="671.12,-441.853 660.686,-438.478 666.15,-442.402 661.18,-442.951 661.18,-442.951 661.18,-442.951 666.15,-442.402 661.674,-447.424 671.12,-441.853 671.12,-441.853"/>
<polygon fill="#b4eaed" stroke="#b4eaed" points="771.984,-101.26 762.902,-95.1144 767.058,-100.404 762.131,-99.5479 762.131,-99.5479 762.131,-99.5479 767.058,-100.404 761.361,-103.981 771.984,-101.26 771.984,-101.26"/>
<text text-anchor="middle" x="1007.5" y="-275.4" font-family="Times Roman,serif" font-size="14.00">notify_users</text>
</g>
<!-- Ping -->
<g id="node27" class="node"><title>Ping</title>
<ellipse fill="none" stroke="black" cx="558" cy="-355" rx="33.234" ry="18.3848"/>
<text text-anchor="middle" x="558" y="-351.4" font-family="Times Roman,serif" font-size="14.00">Ping</text>
</g>
<!-- Article&#45;&gt;Ping -->
<g id="edge62" class="edge"><title>Article&#45;&gt;Ping</title>
<path fill="none" stroke="#33e366" d="M615.85,-420.409C613.82,-410.887 610.484,-400.433 605,-392 600.796,-385.536 595.078,-379.709 589.076,-374.693"/>
<ellipse fill="none" stroke="#33e366" cx="616.601" cy="-424.528" rx="4.00001" ry="4.00001"/>
<polygon fill="#33e366" stroke="#33e366" points="588.768,-374.457 583.57,-364.802 584.8,-371.415 580.832,-368.373 580.832,-368.373 580.832,-368.373 584.8,-371.415 578.094,-371.944 588.768,-374.457 588.768,-374.457"/>
</g>
<!-- Tag -->
<g id="node30" class="node"><title>Tag</title>
<ellipse fill="none" stroke="black" cx="637" cy="-355" rx="27.7881" ry="18.3848"/>
<text text-anchor="middle" x="637" y="-351.4" font-family="Times Roman,serif" font-size="14.00">Tag</text>
</g>
<!-- Article&#45;&gt;Tag -->
<g id="edge80" class="edge"><title>Article&#45;&gt;Tag</title>
<path fill="none" stroke="#42450d" d="M627.932,-418.662C628.696,-415.753 629.404,-412.828 630,-410 631.773,-401.589 633.161,-392.354 634.217,-383.893"/>
<polygon fill="#42450d" stroke="#42450d" points="627.919,-418.707 620.864,-427.102 626.556,-423.518 625.193,-428.329 625.193,-428.329 625.193,-428.329 626.556,-423.518 629.523,-429.555 627.919,-418.707 627.919,-418.707"/>
<polygon fill="#42450d" stroke="#42450d" points="634.245,-383.646 639.851,-374.221 634.812,-378.678 635.38,-373.71 635.38,-373.71 635.38,-373.71 634.812,-378.678 630.909,-373.199 634.245,-383.646 634.245,-383.646"/>
</g>
<!-- PostType -->
<g id="node20" class="node"><title>PostType</title>
<ellipse fill="none" stroke="black" cx="2189" cy="-551" rx="53.9477" ry="18.3848"/>
<text text-anchor="middle" x="2189" y="-547.4" font-family="Times Roman,serif" font-size="14.00">PostType</text>
</g>
<!-- PageCache -->
<g id="node21" class="node"><title>PageCache</title>
<polygon fill="none" stroke="black" points="2353,-569 2261,-569 2261,-533 2353,-533 2353,-569"/>
<text text-anchor="middle" x="2307" y="-547.4" font-family="Times Roman,serif" font-size="14.00">PageCache</text>
</g>
<!-- EmailNotifier -->
<g id="node24" class="node"><title>EmailNotifier</title>
<polygon fill="none" stroke="black" points="2475,-569 2371,-569 2371,-533 2475,-533 2475,-569"/>
<text text-anchor="middle" x="2423" y="-547.4" font-family="Times Roman,serif" font-size="14.00">EmailNotifier</text>
</g>
<!-- User&#45;&gt;Content -->
<g id="edge84" class="edge"><title>User&#45;&gt;Content</title>
<path fill="none" stroke="#35e561" d="M686.088,-101.358C650.828,-107.262 599.884,-117.359 557,-132 530.061,-141.197 501.161,-155.037 479.071,-166.532"/>
<polygon fill="#35e561" stroke="#35e561" points="686.179,-101.344 696.774,-104.174 691.114,-100.538 696.049,-99.7325 696.049,-99.7325 696.049,-99.7325 691.114,-100.538 695.324,-95.2913 686.179,-101.344 686.179,-101.344"/>
<polygon fill="#35e561" stroke="#35e561" points="478.891,-166.627 467.946,-167.315 474.469,-168.961 470.047,-171.295 470.047,-171.295 470.047,-171.295 474.469,-168.961 472.147,-175.275 478.891,-166.627 478.891,-166.627"/>
<text text-anchor="middle" x="611" y="-137.4" font-family="Times Roman,serif" font-size="14.00">notify_contents</text>
</g>
<!-- User&#45;&gt;Notification -->
<g id="edge82" class="edge"><title>User&#45;&gt;Notification</title>
<path fill="none" stroke="#f139de" d="M729,-68.0731C729,-61.4485 729,-54.332 729,-47.6302"/>
<ellipse fill="none" stroke="#f139de" cx="729" cy="-72.2135" rx="4" ry="4"/>
<polygon fill="#f139de" stroke="#f139de" points="729,-47.5704 733.5,-37.5704 729,-42.5704 729,-37.5704 729,-37.5704 729,-37.5704 729,-42.5704 724.5,-37.5705 729,-47.5704 729,-47.5704"/>
</g>
<!-- User&#45;&gt;Article -->
<g id="edge86" class="edge"><title>User&#45;&gt;Article</title>
<path fill="none" stroke="#f0785f" d="M771.152,-98.8321C809.144,-103.367 865.944,-112.866 912,-132 1001.66,-169.248 1096.5,-210.708 1054,-298 1015.84,-376.371 975.651,-382.307 893,-410 853.063,-423.381 739.121,-435.804 671.403,-442.294"/>
<ellipse fill="none" stroke="#f0785f" cx="766.841" cy="-98.3402" rx="4.00001" ry="4.00001"/>
<polygon fill="#f0785f" stroke="#f0785f" points="671.312,-442.302 660.932,-438.766 666.334,-442.774 661.356,-443.246 661.356,-443.246 661.356,-443.246 666.334,-442.774 661.781,-447.726 671.312,-442.302 671.312,-442.302"/>
</g>
<!-- Page -->
<g id="node26" class="node"><title>Page</title>
<ellipse fill="none" stroke="black" cx="886" cy="-355" rx="34.8574" ry="18.3848"/>
<text text-anchor="middle" x="886" y="-351.4" font-family="Times Roman,serif" font-size="14.00">Page</text>
</g>
<!-- Page&#45;&gt;Redirection -->
<g id="edge92" class="edge"><title>Page&#45;&gt;Redirection</title>
<path fill="none" stroke="#9fbfd2" d="M873.594,-329.348C846.912,-275.408 783.235,-153.437 743,-132 703.925,-111.182 588.236,-101.854 510.044,-97.8376"/>
<ellipse fill="none" stroke="#9fbfd2" cx="875.49" cy="-333.203" rx="4.00002" ry="4.00002"/>
<polygon fill="#9fbfd2" stroke="#9fbfd2" points="509.737,-97.8225 499.972,-92.8336 504.744,-97.5753 499.75,-97.3281 499.75,-97.3281 499.75,-97.3281 504.744,-97.5753 499.527,-101.823 509.737,-97.8225 509.737,-97.8225"/>
</g>
<!-- Page&#45;&gt;Redirect -->
<g id="edge94" class="edge"><title>Page&#45;&gt;Redirect</title>
<path fill="none" stroke="#94aca7" d="M844.252,-344.484C831.397,-341.474 817.164,-338.37 804,-336 668.384,-311.586 507.491,-293.507 422.5,-284.797"/>
<polygon fill="#94aca7" stroke="#94aca7" points="844.493,-344.542 853.175,-351.24 849.356,-345.702 854.22,-346.863 854.22,-346.863 854.22,-346.863 849.356,-345.702 855.264,-342.486 844.493,-344.542 844.493,-344.542"/>
<polygon fill="#94aca7" stroke="#94aca7" points="422.466,-284.794 412.973,-279.305 417.492,-284.288 412.518,-283.782 412.518,-283.782 412.518,-283.782 417.492,-284.288 412.062,-288.258 422.466,-284.794 422.466,-284.794"/>
</g>
<!-- Page&#45;&gt;Notification -->
<g id="edge88" class="edge"><title>Page&#45;&gt;Notification</title>
<path fill="none" stroke="#312802" d="M905.66,-331.304C927.575,-304.293 960.77,-261.384 967,-242 969.448,-234.384 969.205,-231.69 967,-224 942.726,-139.362 932.532,-108.708 862,-56 844.266,-42.7475 822.014,-34.2415 800.813,-28.782"/>
<ellipse fill="none" stroke="#312802" cx="902.884" cy="-334.705" rx="4.00002" ry="4.00002"/>
<polygon fill="#312802" stroke="#312802" points="800.57,-28.7244 791.883,-22.0328 795.706,-27.5675 790.841,-26.4107 790.841,-26.4107 790.841,-26.4107 795.706,-27.5675 789.8,-30.7886 800.57,-28.7244 800.57,-28.7244"/>
</g>
<!-- Page&#45;&gt;Trigger -->
<g id="edge96" class="edge"><title>Page&#45;&gt;Trigger</title>
<path fill="none" stroke="#7413ce" d="M846.36,-345.259C755.638,-322.828 535.18,-267.503 463,-242 425.855,-228.876 417.186,-223.719 382,-206 336.85,-183.264 325.947,-176.665 283,-150 266.22,-139.582 247.986,-127.29 233.074,-116.972"/>
<ellipse fill="none" stroke="#7413ce" cx="850.329" cy="-346.239" rx="4.00001" ry="4.00001"/>
<polygon fill="#7413ce" stroke="#7413ce" points="232.922,-116.866 227.284,-107.46 228.818,-114.01 224.714,-111.154 224.714,-111.154 224.714,-111.154 228.818,-114.01 222.143,-114.848 232.922,-116.866 232.922,-116.866"/>
</g>
<!-- Page&#45;&gt;User -->
<g id="edge90" class="edge"><title>Page&#45;&gt;User</title>
<path fill="none" stroke="#e1cd10" d="M886.608,-326.195C885.967,-278.808 877.52,-184.445 824,-132 809.707,-117.994 789.508,-109.142 771.409,-103.624"/>
<polygon fill="#e1cd10" stroke="#e1cd10" points="886.608,-326.371 882.133,-336.382 886.62,-331.371 886.633,-336.371 886.633,-336.371 886.633,-336.371 886.62,-331.371 891.133,-336.36 886.608,-326.371 886.608,-326.371"/>
<polygon fill="#e1cd10" stroke="#e1cd10" points="771.252,-103.58 762.831,-96.556 766.436,-102.235 761.621,-100.89 761.621,-100.89 761.621,-100.89 766.436,-102.235 760.41,-105.224 771.252,-103.58 771.252,-103.58"/>
<text text-anchor="middle" x="920.5" y="-229.4" font-family="Times Roman,serif" font-size="14.00">notify_users</text>
</g>
<!-- Blog -->
<g id="node28" class="node"><title>Blog</title>
<ellipse fill="none" stroke="black" cx="2526" cy="-551" rx="33.234" ry="18.3848"/>
<text text-anchor="middle" x="2526" y="-547.4" font-family="Times Roman,serif" font-size="14.00">Blog</text>
</g>
<!-- BlogSweeper -->
<g id="node29" class="node"><title>BlogSweeper</title>
<polygon fill="none" stroke="black" points="2683,-569 2577,-569 2577,-533 2683,-533 2683,-569"/>
<text text-anchor="middle" x="2630" y="-547.4" font-family="Times Roman,serif" font-size="14.00">BlogSweeper</text>
</g>
</g>
</svg>
